<?xml version="1.0" encoding="utf-8"?>
<!-- Generator: Adobe Illustrator 27.6.0, SVG Export Plug-In . SVG Version: 6.00 Build 0)  -->
<svg version="1.1" id="Layer_1" xmlns="http://www.w3.org/2000/svg" xmlns:xlink="http://www.w3.org/1999/xlink" x="0px" y="0px"
	 viewBox="0 0 1634.6 411.8" style="enable-background:new 0 0 1634.6 411.8;" xml:space="preserve">
<style type="text/css">
	.st0{fill:#2E62CC;}
	.st1{fill:#87A7E8;}
	.st2{fill:none;stroke:#87A7E8;stroke-width:30;stroke-miterlimit:10;}
</style>
<g>
	<path class="st0" d="M1062.4,193.9c-0.2-0.3-0.2-0.7,0.1-1l78.7-92.3c6.9-8,8.4-19,3.9-28.6c-4.4-9.6-13.7-15.6-24.3-15.6
		c-8.1,0-15.6,3.6-20.8,9.9l-86.6,106.3l-0.1,0.2c-3.5,4.5-6.7,8.8-9.8,12.9V84.4c0-15.4-12.5-27.9-27.9-27.9S947.7,69,947.7,84.4
		v262.3c0,15.4,12.5,27.9,27.9,27.9s27.9-12.5,27.9-27.9v-86.4c0-3.7,1.3-7.3,3.8-10.1l14.3-16.5c0.3-0.3,0.7-0.5,1.1-0.5
		c0.4,0,0.8,0.2,1.1,0.6l86.3,128.7c5.1,7.6,13.7,12.2,22.9,12.2c10.2,0,19.5-5.6,24.3-14.6s4.2-19.9-1.5-28.3L1062.4,193.9
		L1062.4,193.9z"/>
	<path class="st0" d="M183.8,324h-41.4c-34.4,0-62.5-28-62.5-62.5V83.4C79.9,68,67.4,55.5,52,55.5S24,68,24,83.4v181.2
		c0,60.1,48.9,109,109,109h50.7c13.7,0,24.8-11.1,24.8-24.8S197.5,324,183.8,324L183.8,324z"/>
	<path class="st0" d="M772.4,198.8h-66.7c-13,0-23.6,10.6-23.6,23.7s10.6,23.7,23.6,23.7H742v72c0,1.2-0.8,2.3-1.9,2.7
		c-9.8,2.9-24.2,4.5-40.5,4.5c-65.1,0-105.5-42.4-105.5-110.7s42.3-110.3,110.3-110.3c17.9,0,33.4,2.1,47.4,6.5
		c6.3,2,13,1.3,18.8-1.8c5.8-3.1,10.1-8.3,12-14.7c3.8-12.9-3.6-26.6-16.4-30.4c-17.9-5.3-39.4-8.3-60.8-8.3
		c-100.1,0-167.6,64.5-168.1,160.6c0,46.8,15.9,89,43.7,115.9c29.1,27.8,67,41.3,116.1,41.3c23.4,0,47.4-3.3,71.5-9.8
		c16.1-4.4,27.4-19.1,27.4-35.8V222.3C795.9,209.3,785.3,198.8,772.4,198.8L772.4,198.8z"/>
	<path class="st1" d="M869.7,57.5c-15.8-0.5-28.8,12.2-28.8,27.9v11c0,3.7,2.3,7,5.8,8.3l42.6,15.8c3.7,1.3,7.6-1.3,7.6-5.3V86
		C896.8,70.8,884.9,58,869.7,57.5L869.7,57.5z"/>
	<path class="st0" d="M891.8,162.8l-40.5-15c-5-1.9-10.4,1.9-10.4,7.2v194.1c0,9.9,5.6,19.1,14.6,23.4c20.8,9.9,41.3-5.1,41.3-24.8
		V170.1C896.8,166.8,894.8,164,891.8,162.8L891.8,162.8z"/>
	<path class="st0" d="M1351.6,325h-98.3c-4.2,0-7.6-3.4-7.6-7.6V241c0-4.2,3.4-7.6,7.6-7.6h84.9c13.6,0,24.6-11,24.6-24.6
		s-11-24.6-24.6-24.6h-84.9c-4.2,0-7.6-3.4-7.6-7.6v-63c0-4.2,3.4-7.6,7.6-7.6h91.6c13.6,0,24.6-11,24.6-24.6v-0.4
		c0-13.6-11-24.6-24.6-24.6h-130.5c-13.6,0-24.6,11-24.6,24.6v269c0,13.6,11,24.6,24.6,24.6h137.2c13.6,0,24.6-11,24.6-24.6v-0.4
		C1376.2,336,1365.2,325,1351.6,325L1351.6,325z"/>
	<path class="st0" d="M1609.7,335.7c-3.8-13.6-8.1-31.8-13.8-56.6c-6.1-27.1-17.1-46.5-32.9-57.7c28.5-15.3,45-43,45-76.5
		c0-25.2-9-47.3-25.4-62.1c-19.6-18.1-47.1-26.2-89.1-26.2c-14.3,0-29.1,0.7-42.6,1.9c-21.2,2-37.1,19.8-37.1,41.5v242.7
		c0,15,12.1,27.3,26.9,27.3s26.9-12.2,26.9-27.3V242.4h26.7c30,1.2,42.1,13.6,50,50.8c6.3,28.2,10.7,46.1,14.4,58
		c3.5,11.3,13.7,18.9,25.4,18.9c8.3,0,16-3.8,21.1-10.5C1610.3,352.7,1612,344.1,1609.7,335.7L1609.7,335.7z M1497.4,197.1h-18.3
		c-6.4,0-11.6-5.4-11.6-12v-68.3c0-7.2,5.4-13.2,12.4-13.7c5.1-0.4,10.5-0.5,16.2-0.5c38.7,0.4,58.3,16.2,58.3,46.9
		S1532.5,197.1,1497.4,197.1L1497.4,197.1z"/>
	<circle class="st0" cx="349.6" cy="214.9" r="159.4"/>
</g>
<circle class="st2" cx="349.5" cy="214.4" r="110.3"/>
<g>
	<path class="st1" d="M379.9,270c-20.8-2.3-19.1-4.9-21.2-12.2c-2.2-7.2-9.6-6.5-9.6-6.5s-0.2,3.4-10.9,3.1
		c-10.7-0.3-16.9-2.7-23.6-5.6c-6.6-2.9,1-11,1.3-11c0.2-0.1,4.9-6.4,4.5-9.5c-0.4-3.1-5-1.3-5-1.3s-2,1.7-5.6,0.3
		c-3.5-1.4-5-12.8-5-12.8s-0.4-11.6,11.1-9.9c11.4,1.7,12.6,9.9,13.2,12.5c0.7,2.6,3.1,3.1,3.1,3.1s5,0.1,7.4-0.4s2.5-1.7,2.7-5.3
		c0.2-3.5,2.8-4.4,2.8-4.4l4.4-1.7c0,0,2.5-1.9,2.5-8.3s3.3-8.6,3.3-8.6s5.6-3.4,9.9-5.3c4.3-1.9,4.9-6.5,4.9-6.5s0.8-7,0.4-9.2
		s-1.8-2.5-1.8-2.5s-2.8-1.2-3.8-1.4s-1.2-1.1-1.2-1.1v-3.7c0,0-6.2-3.6-6.9,3.1c-0.7,6.7-10.3,8.9-10.3,8.9s-11.3,0.7-11.3-14.9
		s26.9-13.4,26.9-13.4l7.4-4.6c-6.4-1.8-13.1-2.7-20-2.7c-41.4,0-75,33.6-75,75c0,4.8,0.4,9.4,1.3,13.9c8.6,2,9.8,5,9.8,5
		s0.9,6.3,3,8c2.1,1.7,3.8,4.1,3.8,4.1c1,3.5,4.6,4.6,4.6,4.6c5-0.4,8.6,3.8,8.6,3.8c7.9,8,22.5,2.6,20.2,4.8
		c-2.3,2.2-0.1,7.3-0.1,7.3s8.3,6.7,6.3,9.8c-1.7,2.6,2.2,10.2,3.5,12.5c0.2,0.4,0.4,0.7,0.4,0.7l-0.2,2.3l37.9-2.6
		c0,0,6.2-3.5,10.4-7.4C388.6,276,390.8,271.2,379.9,270L379.9,270z"/>
	<path class="st1" d="M409.4,193.7h2.1c0,0,0.7,0.1,0.9-1.9c0.1-2,0-5.9,3.8-7.2c0.8-0.3,1.5-0.5,2.2-0.8
		c-3.7-8.5-8.9-16.1-15.2-22.7l0,0c0.3,5-0.2,11.8-4.4,16.7c0,0-2.6,1.8,0.4,5.8c3,4,3.5,5.9,3.5,5.9S404.9,193.6,409.4,193.7
		L409.4,193.7z"/>
	<path class="st1" d="M423.7,202.2c-1.3,3.6-3.6,8.7-5.9,9.3c-3.7,1.1-12.4,11-13,14.7c-0.6,3.7-2.1,10.1,1.3,13.7
		c2.7,2.9,6.9,9.1,8.3,11.4c6.5-11.1,10.2-24,10.2-37.7C424.6,209.7,424.3,205.9,423.7,202.2L423.7,202.2z"/>
</g>
</svg>
